Coordinates
version=1
nRows=13
nColumns=38
inDegrees=no

Units are S.I. units (second, meters, Newtons, ...)
If the header above contains a line with 'inDegrees', this indicates whether rotational values are in degrees (yes) or radians (no).

endheader
time	pelvis_tilt	pelvis_list	pelvis_rotation	pelvis_tx	pelvis_ty	pelvis_tz	hip_flexion_r	hip_adduction_r	hip_rotation_r	knee_angle_r	ankle_angle_r	subtalar_angle_r	mtp_angle_r	hip_flexion_l	hip_adduction_l	hip_rotation_l	knee_angle_l	ankle_angle_l	subtalar_angle_l	mtp_angle_l	lumbar_extension	lumbar_bending	lumbar_rotation	arm_flex_r	arm_add_r	arm_rot_r	elbow_flex_r	pro_sup_r	wrist_flex_r	wrist_dev_r	arm_flex_l	arm_add_l	arm_rot_l	elbow_flex_l	pro_sup_l	wrist_flex_l	wrist_dev_l
1.8	0.168069	1.28541	-1.6349	0.750513	-0.044479	1.10939	-0.231398	0.018189	-0.0931808	0.437661	-0.126938	0	0	0.126181	-0.129365	-0.114907	0.786117	-0.125921	0	0	-0.413663	0.0405432	-0.067126	0.577747	-0.506795	0.570085	1.11682	0.734621	0	0	0.300943	-0.444643	0.11782	1.18536	0.793571	0	0
1.81	0.171272	1.28829	-1.64171	0.752454	-0.0562491	1.10824	-0.238673	0.0157487	-0.0891772	0.442595	-0.118176	0	0	0.127415	-0.122204	-0.120975	0.729879	-0.122001	0	0	-0.411923	0.0395243	-0.0651165	0.58131	-0.508274	0.573098	1.11775	0.735292	0	0	0.299694	-0.444882	0.117068	1.18798	0.793477	0	0
1.82	0.17301	1.2912	-1.64698	0.754517	-0.0681	1.10688	-0.245737	0.0134019	-0.0856342	0.448029	-0.110281	0	0	0.127025	-0.115141	-0.125746	0.671578	-0.116457	0	0	-0.41005	0.0391151	-0.0627554	0.584121	-0.509589	0.57399	1.11886	0.738127	0	0	0.298576	-0.444723	0.116384	1.19063	0.793001	0	0
1.83	0.173286	1.29404	-1.65053	0.756723	-0.0800181	1.10532	-0.252325	0.0110769	-0.0835254	0.455374	-0.0962823	0	0	0.124632	-0.107946	-0.127425	0.609904	-0.107852	0	0	-0.407573	0.039489	-0.0619861	0.592428	-0.512892	0.585635	1.11822	0.726134	0	0	0.295542	-0.444426	0.113262	1.19388	0.792908	0	0
1.84	0.171338	1.2981	-1.65194	0.759042	-0.0920909	1.10346	-0.257474	0.00923175	-0.0819514	0.462696	-0.0880557	0	0	0.123198	-0.102293	-0.130263	0.549	-0.101474	0	0	-0.403906	0.0405188	-0.0599992	0.596214	-0.515037	0.588968	1.11921	0.72747	0	0	0.293031	-0.44351	0.111296	1.19693	0.792227	0	0
1.85	0.168787	1.30305	-1.65252	0.7615	-0.104275	1.10136	-0.261068	0.00724334	-0.0818716	0.471621	-0.077922	0	0	0.121504	-0.0967739	-0.13083	0.486051	-0.094375	0	0	-0.399085	0.0418483	-0.058202	0.599323	-0.517081	0.591789	1.12034	0.728829	0	0	0.29014	-0.441861	0.108381	1.19979	0.791757	0	0
1.86	0.16637	1.30855	-1.65254	0.764173	-0.116549	1.09905	-0.263763	0.00477547	-0.0837914	0.481297	-0.0684391	0	0	0.119694	-0.0911022	-0.129495	0.422128	-0.0875145	0	0	-0.393511	0.0434839	-0.0569977	0.602018	-0.519123	0.593968	1.12167	0.730186	0	0	0.287233	-0.4398	0.105301	1.20232	0.791715	0	0
1.87	0.164378	1.31379	-1.65123	0.767264	-0.128769	1.09663	-0.266632	0.00169838	-0.0891784	0.491098	-0.0628748	0	0	0.11802	-0.0849192	-0.126704	0.360174	-0.0796485	0	0	-0.3884	0.0458326	-0.0572109	0.60508	-0.521716	0.595465	1.12365	0.729222	0	0	0.284863	-0.438387	0.1043	1.20503	0.791407	0	0
1.88	0.163929	1.31818	-1.64944	0.77085	-0.1409	1.0942	-0.270274	-0.00225621	-0.0984212	0.501694	-0.0544429	0	0	0.114499	-0.0771083	-0.119467	0.296739	-0.0749581	0	0	-0.384011	0.0486531	-0.0599662	0.610074	-0.524458	0.599057	1.12461	0.732477	0	0	0.282464	-0.436511	0.102323	1.20772	0.790481	0	0
1.89	0.16087	1.32468	-1.64758	0.774145	-0.153655	1.09145	-0.271564	-0.00588186	-0.104636	0.513225	-0.0472284	0	0	0.111929	-0.0717695	-0.118458	0.236527	-0.0691067	0	0	-0.375834	0.051028	-0.0598441	0.612553	-0.527295	0.601806	1.12521	0.738309	0	0	0.279074	-0.433578	0.100479	1.20915	0.790209	0	0
1.9	0.162016	1.32941	-1.64663	0.777871	-0.166105	1.08882	-0.274548	-0.0106161	-0.115736	0.52529	-0.0391009	0	0	0.105546	-0.0641506	-0.10628	0.172775	-0.0693452	0	0	-0.370347	0.0528941	-0.0627186	0.612977	-0.527343	0.597055	1.12615	0.749157	0	0	0.277641	-0.431768	0.0997881	1.21073	0.791886	0	0
1.91	0.161015	1.33405	-1.64424	0.781531	-0.178786	1.08613	-0.27842	-0.0150446	-0.125267	0.535471	-0.0333159	0	0	0.0968911	-0.0581251	-0.091021	0.110396	-0.0713319	0	0	-0.363972	0.0549836	-0.0655515	0.618402	-0.530875	0.605157	1.12637	0.736396	0	0	0.275201	-0.429379	0.0976767	1.21174	0.794717	0	0
1.92	0.157561	1.34	-1.64101	0.784935	-0.191892	1.08314	-0.280019	-0.0196529	-0.133957	0.548134	-0.0281467	0	0	0.0892295	-0.054269	-0.0760755	0.0556586	-0.0704838	0	0	-0.355272	0.0566541	-0.0658474	0.618393	-0.532396	0.604593	1.12696	0.736892	0	0	0.273105	-0.42715	0.0978911	1.21216	0.7955	0	0
